HIERARCHY
ROOT hip
{
	OFFSET 0.000000 0.000000 0.000000 
	CHANNELS 6 Xposition Yposition Zposition Zrotation Xrotation Yrotation
	JOINT abdomen
	{
		OFFSET 0.000000 3.402643 0.000000 
		CHANNELS 3 Zrotation Xrotation Yrotation
		JOINT chest
		{
			OFFSET 0.000000 8.438565 -0.680529 
			CHANNELS 3 Zrotation Xrotation Yrotation
			JOINT neck
			{
				OFFSET 0.000000 10.207942 -0.272212 
				CHANNELS 3 Zrotation Xrotation Yrotation
				JOINT head
				{
					OFFSET 0.000000 3.130431 0.000000 
					CHANNELS 3 Zrotation Xrotation Yrotation
					End Site
					{
						OFFSET 0.000000 3.130435 0.000000 
					}
				}
			}
			JOINT lCollar
			{
				OFFSET 3.470700 6.669187 -0.816635 
				CHANNELS 3 Zrotation Xrotation Yrotation
				JOINT lShldr
				{
					OFFSET 3.198488 0.000000 0.000000 
					CHANNELS 3 Zrotation Xrotation Yrotation
					JOINT lForeArm
					{
						OFFSET 10.139888 0.000000 0.000000 
						CHANNELS 3 Zrotation Xrotation Yrotation
						JOINT lHand
						{
							OFFSET 8.370511 0.000000 0.000000 
							CHANNELS 3 Zrotation Xrotation Yrotation
							End Site
							{
								OFFSET 4.083176 0.000000 0.000000 
							}
						}
					}
				}
			}
			JOINT rCollar
			{
				OFFSET -3.470700 6.669187 -0.816635 
				CHANNELS 3 Zrotation Xrotation Yrotation
				JOINT rShldr
				{
					OFFSET -3.198488 0.000000 0.000000 
					CHANNELS 3 Zrotation Xrotation Yrotation
					JOINT rForeArm
					{
						OFFSET -10.139888 0.000000 0.000000 
						CHANNELS 3 Zrotation Xrotation Yrotation
						JOINT rHand
						{
							OFFSET -8.370511 0.000000 0.000000 
							CHANNELS 3 Zrotation Xrotation Yrotation
							End Site
							{
								OFFSET -4.083176 0.000000 0.000000 
							}
						}
					}
				}
			}
		}
	}
	JOINT lThigh
	{
		OFFSET 5.308129 -1.633274 1.361059 
		CHANNELS 3 Zrotation Xrotation Yrotation
		JOINT lShin
		{
			OFFSET -2.041588 -20.007561 0.000000 
			CHANNELS 3 Zrotation Xrotation Yrotation
			JOINT lFoot
			{
				OFFSET 0.000000 -19.190928 -1.224953 
				CHANNELS 3 Zrotation Xrotation Yrotation
				End Site
				{
					OFFSET 0.000000 -2.449906 4.627600 
				}
			}
		}
	}
	JOINT rThigh
	{
		OFFSET -5.308129 -1.633274 1.361059 
		CHANNELS 3 Zrotation Xrotation Yrotation
		JOINT rShin
		{
			OFFSET 2.041588 -20.007561 0.000000 
			CHANNELS 3 Zrotation Xrotation Yrotation
			JOINT rFoot
			{
				OFFSET 0.000000 -19.190928 -1.224953 
				CHANNELS 3 Zrotation Xrotation Yrotation
				End Site
				{
					OFFSET 0.000000 -2.449906 4.627600 
				}
			}
		}
	}
}
MOTION
Frames: 9
Frame Time: 0.033333
-4.039425 40.357796 -1.459117 -0.000000 3.496084 -1.005859 -0.000000 31.953119 -0.000000 -0.000000 23.496094 -0.000000 -0.000000 -0.000003 -0.000000 4.831182 -51.609779 3.790139 -5.814373 -12.023329 -14.288477 -26.306286 40.883652 -34.000042 -14.941112 -26.445284 -76.009155 -62.130234 2.875536 -1.421235 5.484157 1.496267 15.901500 32.727509 35.980259 26.281250 2.668954 -37.379944 76.385521 63.862328 1.160284 1.297573 9.273851 -38.012051 4.685400 -7.888102 65.225876 1.484528 -1.577001 -30.937447 0.591837 -13.879650 -40.585411 -5.449291 6.235863 65.636467 -1.035724 6.099895 -27.959379 4.943101 
-4.045378 40.296978 -1.429649 -0.000000 3.593740 -1.005859 -0.000000 32.363277 -0.000000 -0.000000 23.593748 -0.000000 -0.000000 -0.000003 -0.000000 4.903144 -52.271416 3.881533 -5.814373 -12.023329 -14.288477 -26.665464 40.907936 -34.014240 -12.616596 -27.571062 -70.890877 -63.306084 2.908486 -1.355943 5.484157 1.496267 15.901500 33.530201 35.977119 26.280121 -1.748872 -37.426369 69.118568 64.492004 1.119675 1.269175 9.305079 -38.168262 4.703825 -7.952250 65.437157 1.487187 -1.507949 -31.014912 0.595385 -13.920093 -40.775616 -5.913318 6.343373 65.880295 -0.938622 5.737230 -28.042131 4.922491 
-4.051330 40.236164 -1.400181 0.000000 3.691396 -1.005859 -0.000000 32.773434 -0.000000 -0.000000 23.691410 -0.000000 -0.000000 -0.000003 -0.000000 4.976831 -52.923286 3.974292 -5.814373 -12.023329 -14.288477 -27.010687 40.936905 -34.031181 -14.265262 -26.801786 -74.497292 -64.489960 2.930575 -1.299919 5.484157 1.496267 15.901500 34.329067 35.980267 26.281246 2.788172 -37.372520 76.581909 65.114685 1.088343 1.240777 9.352643 -38.341991 4.723345 -8.019804 65.649658 1.531102 -1.493079 -31.131990 0.602665 -13.949660 -40.970116 -5.910304 6.334982 66.136200 -0.939263 5.779419 -28.199678 4.873336 
-4.057280 40.175354 -1.370713 0.000000 3.798818 -1.005859 -0.000000 33.173824 -0.000000 -0.000000 23.798820 -0.000000 -0.000000 -0.000003 -0.000000 5.054594 -53.584820 4.071335 -5.814373 -12.023329 -14.288477 -27.364943 40.962364 -34.043461 -11.899429 -27.868719 -69.344116 -65.660980 2.958622 -1.239339 5.484157 1.496267 15.901500 35.129852 35.980259 26.281248 -1.091140 -37.447659 70.200546 65.745644 1.054847 1.207442 9.416728 -38.632374 4.779102 -8.061080 65.932961 1.561286 -1.555667 -31.357145 0.588896 -14.003649 -41.217312 -5.619875 6.372830 66.383232 -1.057258 6.161495 -28.360044 4.935301 
-4.063233 40.114532 -1.341245 0.000000 3.896475 -1.005859 -0.000000 33.583977 -0.000000 -0.000000 23.896482 -0.000000 -0.000000 -0.000003 -0.000000 5.134301 -54.236526 4.170480 -5.814373 -12.023329 -14.288477 -27.711954 40.993542 -34.064415 -14.553992 -26.649372 -75.142159 -66.835144 2.983043 -1.184487 5.484157 1.496267 15.901500 35.940388 35.980270 26.281252 3.056259 -37.354599 77.023674 66.369812 1.011165 1.170486 9.452011 -38.809566 4.784125 -8.222033 66.212669 1.777069 -1.539289 -31.522562 0.518830 -14.024263 -41.370979 -5.623387 6.408947 66.619118 -1.135051 6.175793 -28.500383 4.987500 
-4.069185 40.053719 -1.311777 0.000000 3.994130 -1.005859 -0.000000 33.994137 -0.000000 -0.000000 23.994141 -0.000000 -0.000000 -0.000003 -0.000000 5.217242 -54.888168 4.272278 -5.814373 -12.023329 -14.288477 -28.058235 41.021233 -34.080692 -11.697671 -27.949467 -68.903564 -68.017380 3.004600 -1.113165 5.484157 1.496267 15.901500 36.741173 35.980267 26.281248 -1.651745 -37.430126 69.278381 66.984489 0.982737 1.140824 9.490027 -38.905037 4.902812 -8.008316 66.377228 1.459489 -1.459899 -31.844702 0.630426 -14.078007 -41.615784 -6.037690 6.509434 66.904526 -1.084514 5.754388 -28.676153 4.909866 
-4.031245 40.643383 -1.286118 -0.489464 3.984235 0.873770 -0.034658 32.294918 -0.704144 -0.000000 22.041010 0.097656 0.136719 0.019528 -1.230516 8.438200 -52.149433 11.446691 -5.629385 -12.109533 -13.404099 -27.113705 38.535706 -32.031616 -11.429729 -29.378170 -66.269012 -59.959988 2.825117 -1.524670 5.473349 1.535427 16.309921 38.879982 36.575146 23.871004 -7.444109 -36.126587 58.882389 61.870979 0.879983 1.391440 9.790306 -37.870541 4.860775 -7.486900 63.729679 1.090517 -1.672151 -30.028189 0.381073 -13.318070 -39.926888 -5.621243 6.152574 64.480583 -0.937265 5.279078 -27.027967 3.971837 
-3.924443 42.027519 -1.253214 -1.761761 3.836064 5.850324 -0.098929 27.324183 -2.532729 -0.000000 16.816406 0.390625 0.517579 0.078120 -4.483041 13.132793 -44.318970 24.679478 -5.134606 -12.324819 -11.066351 -25.872814 32.042656 -25.729923 -13.901033 -31.712780 -65.718346 -41.463791 2.213583 -2.336568 5.444020 1.636688 17.379679 43.562660 37.531719 17.027447 -12.902628 -32.825840 45.505051 49.710182 0.615326 1.963324 10.667027 -35.740311 4.904870 -6.670518 58.371136 0.575271 -2.173788 -27.078545 -0.170749 -11.607089 -36.279907 -4.283166 6.585378 59.568645 -1.377334 4.091254 -23.355234 0.935069 
-3.772686 43.492008 -1.212881 -3.571534 3.606289 12.900722 -0.197714 20.204966 -5.029371 0.000000 9.472656 0.839844 1.064458 0.175752 -9.095065 14.545734 -33.906013 34.681126 -4.418333 -12.595677 -7.747492 -26.289928 22.289032 -15.235066 -17.159916 -34.692299 -63.890175 -23.672369 1.373794 -2.896875 5.398168 1.782472 18.916420 49.627888 37.331989 6.489861 -12.859205 -30.497583 36.650726 36.706421 0.265644 2.469871 11.773293 -33.351120 4.838871 -5.790608 50.775986 0.098499 -2.664951 -21.780300 -0.544131 -9.320267 -31.829163 -3.179214 6.314651 52.848228 -1.722679 3.297223 -17.779272 -2.021022 
